<!DOCTYPE svg PUBLIC "-//W3C//DTD SVG 1.1//EN" "http://www.w3.org/Graphics/SVG/1.1/DTD/svg11.dtd">
<!-- Uploaded to: SVG Repo, www.svgrepo.com, Transformed by: SVG Repo Mixer Tools -->
<svg width="800px" height="800px" viewBox="0 0 24 24" fill="none" xmlns="http://www.w3.org/2000/svg">
<g id="SVGRepo_bgCarrier" stroke-width="0"/>
<g id="SVGRepo_tracerCarrier" stroke-linecap="round" stroke-linejoin="round"/>
<g id="SVGRepo_iconCarrier"> <path d="M8 18H10M15 15V17.8C15 18.9201 15 19.4802 14.782 19.908C14.5903 20.2843 14.2843 20.5903 13.908 20.782C13.4802 21 12.9201 21 11.8 21H6.2C5.0799 21 4.51984 21 4.09202 20.782C3.71569 20.5903 3.40973 20.2843 3.21799 19.908C3 19.4802 3 18.9201 3 17.8V6.2C3 5.0799 3 4.51984 3.21799 4.09202C3.40973 3.71569 3.71569 3.40973 4.09202 3.21799C4.51984 3 5.0799 3 6.2 3H9M13 7.05029C13.9609 7.24626 14.8429 7.72047 15.5364 8.41391C16.2298 9.10735 16.704 9.9894 16.9 10.9503M13 10.9502H13.01M13 3C15.0308 3.22586 16.9243 4.13605 18.3691 5.58088C19.814 7.02572 20.7241 8.91921 20.95 10.95" stroke="#ffffff" stroke-width="2" stroke-linecap="round" stroke-linejoin="round"/> </g>
</svg>